<?xml version="1.0" encoding="utf-8"?>
<!-- Generated by Mocodo 4.1.1 -->
<svg width="890" height="992" viewBox="0 0 890 992" xmlns="http://www.w3.org/2000/svg">
<rect x="0" y="0" width="890" height="992" fill="#ffffbf" stroke="none" stroke-width="0"/>

<!-- Inheritance TYPE_ROLE_PARENT_#1 -->
<g>
	<line x1="43" y1="387" x2="43" y2="497" stroke="#f46d43" stroke-width="2"/>
	<polygon points="43 412 49 424 43 420 37 424" fill="#f46d43" stroke-width="0"/>
	<line x1="132" y1="597" x2="43" y2="497" stroke="#f46d43" stroke-width="2"/>
	<line x1="132" y1="497" x2="43" y2="497" stroke="#f46d43" stroke-width="2"/>
	<g>
		<polygon points="43 471.6 21 509.7 65 509.7" stroke="#f46d43" stroke-width="2" fill="#fdae61"/>
		<text x="35" y="502" fill="#000000" font-family="Verdana" font-size="12">XT</text>
	</g>
</g>

<!-- Inheritance STAFF_PARENT_#2 -->
<g>
	<line x1="132" y1="497" x2="221" y2="497" stroke="#f46d43" stroke-width="2"/>
	<polygon points="167 497 179 491 175 497 179 503" fill="#f46d43" stroke-width="0"/>
	<line x1="321" y1="387" x2="221" y2="497" stroke="#f46d43" stroke-width="2"/>
	<line x1="321" y1="497" x2="221" y2="497" stroke="#f46d43" stroke-width="2"/>
	<g>
		<polygon points="221 471.6 199 509.7 243 509.7" stroke="#f46d43" stroke-width="2" fill="#fdae61"/>
		<text x="213" y="502" fill="#000000" font-family="Verdana" font-size="12">XT</text>
	</g>
</g>

<!-- Inheritance ANIMATEUR_PARENT_#3 -->
<g>
	<line x1="321" y1="497" x2="412" y2="497" stroke="#f46d43" stroke-width="2"/>
	<polygon points="358 497 370 491 366 497 370 503" fill="#f46d43" stroke-width="0"/>
	<line x1="508" y1="387" x2="412" y2="497" stroke="#f46d43" stroke-width="2"/>
	<line x1="508" y1="497" x2="412" y2="497" stroke="#f46d43" stroke-width="2"/>
	<g>
		<polygon points="412 471.6 390 509.7 434 509.7" stroke="#f46d43" stroke-width="2" fill="#fdae61"/>
		<text x="404" y="502" fill="#000000" font-family="Verdana" font-size="12">XT</text>
	</g>
</g>

<!-- Inheritance PUBLIC_PARENT_#4 -->
<g>
	<line x1="132" y1="597" x2="221" y2="697" stroke="#f46d43" stroke-width="2"/>
	<polygon points="169.38 639 181.84 643.98 174.7 644.98 172.88 651.95" fill="#f46d43" stroke-width="0"/>
	<line x1="321" y1="806" x2="221" y2="697" stroke="#f46d43" stroke-width="2"/>
	<line x1="321" y1="697" x2="221" y2="697" stroke="#f46d43" stroke-width="2"/>
	<g>
		<polygon points="221 671.6 199 709.7 243 709.7" stroke="#f46d43" stroke-width="2" fill="#fdae61"/>
		<text x="213" y="702" fill="#000000" font-family="Verdana" font-size="12">XT</text>
	</g>
</g>

<!-- Association DF0 -->
<g>
	<line x1="412" y1="277" x2="412" y2="168" stroke="#f46d43" stroke-width="2"/>
	<line x1="412" y1="68" x2="412" y2="168" stroke="#f46d43" stroke-width="2"/>
	<g>
		<circle cx="412" cy="168" r="16" stroke="#f46d43" stroke-width="2" fill="#fdae61"/>
		<text x="403" y="172" fill="#000000" font-family="Verdana" font-size="12">DF</text>
	</g>
	<text x="417" y="201" fill="#1a9850" font-family="Verdana" font-size="12">1,1</text>
	<line x1="417" y1="203" x2="438" y2="203" stroke="#1a9850" stroke-width="1"/>
	<text x="417" y="144" fill="#1a9850" font-family="Verdana" font-size="12">0,N</text>
</g>

<!-- Association DF1 -->
<g>
	<line x1="412" y1="277" x2="43" y2="277" stroke="#f46d43" stroke-width="2"/>
	<line x1="43" y1="387" x2="43" y2="277" stroke="#f46d43" stroke-width="2"/>
	<g>
		<circle cx="43" cy="277" r="16" stroke="#f46d43" stroke-width="2" fill="#fdae61"/>
		<text x="34" y="281" fill="#000000" font-family="Verdana" font-size="12">DF</text>
	</g>
	<text x="333" y="294" fill="#1a9850" font-family="Verdana" font-size="12">1,1</text>
	<text x="48" y="354" fill="#1a9850" font-family="Verdana" font-size="12">1,1</text>
</g>

<!-- Association DF2 -->
<g>
	<line x1="412" y1="277" x2="679" y2="277" stroke="#f46d43" stroke-width="2"/>
	<line x1="803" y1="387" x2="679" y2="277" stroke="#f46d43" stroke-width="2"/>
	<g>
		<circle cx="679" cy="277" r="16" stroke="#f46d43" stroke-width="2" fill="#fdae61"/>
		<text x="670" y="281" fill="#000000" font-family="Verdana" font-size="12">DF</text>
	</g>
	<text x="470" y="294" fill="#1a9850" font-family="Verdana" font-size="12">1,1</text>
	<line x1="470" y1="296" x2="491" y2="296" stroke="#1a9850" stroke-width="1"/>
	<text x="737" y="362.93" fill="#1a9850" font-family="Verdana" font-size="12">1,N</text>
</g>

<!-- Association SERVIR -->
<g>
	<line x1="803" y1="387" x2="803" y2="277" stroke="#f46d43" stroke-width="2"/>
	<line x1="803" y1="168" x2="803" y2="277" stroke="#f46d43" stroke-width="2"/>
	<g>
		<path d="M814 252 a14 14 90 0 1 14 14 V277 h-50 V266 a14 14 90 0 1 14 -14" fill="#fdae61" stroke="#fdae61" stroke-width="0"/>
		<path d="M828 277 v11 a14 14 90 0 1 -14 14 H792 a14 14 90 0 1 -14 -14 V277 H50" fill="#fee08b" stroke="#fee08b" stroke-width="0"/>
		<rect x="778" y="252" width="50" height="50" fill="none" rx="14" stroke="#f46d43" stroke-width="2"/>
		<line x1="778" y1="277" x2="828" y2="277" stroke="#f46d43" stroke-width="1"/>
		<text x="786" y="269.75" fill="#000000" font-family="Verdana" font-size="12">servir</text>
		<text x="785" y="294.8" fill="#000000" font-family="Verdana" font-size="12">date</text>
	</g>
	<text x="808" y="320" fill="#1a9850" font-family="Verdana" font-size="12">0,1</text>
	<text x="808" y="210" fill="#1a9850" font-family="Verdana" font-size="12">0,N</text>
</g>

<!-- Association DF3 -->
<g>
	<line x1="508" y1="387" x2="599" y2="387" stroke="#f46d43" stroke-width="2"/>
	<line x1="679" y1="387" x2="599" y2="387" stroke="#f46d43" stroke-width="2"/>
	<g>
		<circle cx="599" cy="387" r="16" stroke="#f46d43" stroke-width="2" fill="#fdae61"/>
		<text x="590" y="391" fill="#000000" font-family="Verdana" font-size="12">DF</text>
	</g>
	<text x="556" y="379" fill="#1a9850" font-family="Verdana" font-size="12">0,1</text>
	<text x="621" y="404" fill="#1a9850" font-family="Verdana" font-size="12">1,1</text>
	<line x1="621" y1="406" x2="642" y2="406" stroke="#1a9850" stroke-width="1"/>
</g>

<!-- Association DF4 -->
<g>
	<line x1="508" y1="387" x2="599" y2="497" stroke="#f46d43" stroke-width="2"/>
	<line x1="679" y1="497" x2="599" y2="497" stroke="#f46d43" stroke-width="2"/>
	<g>
		<circle cx="599" cy="497" r="16" stroke="#f46d43" stroke-width="2" fill="#fdae61"/>
		<text x="590" y="501" fill="#000000" font-family="Verdana" font-size="12">DF</text>
	</g>
	<text x="501.19" y="421" fill="#1a9850" font-family="Verdana" font-size="12">0,N</text>
	<text x="623" y="514" fill="#1a9850" font-family="Verdana" font-size="12">1,1</text>
	<line x1="623" y1="516" x2="644" y2="516" stroke="#1a9850" stroke-width="1"/>
</g>

<!-- Association DF5 -->
<g>
	<line x1="803" y1="387" x2="803" y2="497" stroke="#f46d43" stroke-width="2"/>
	<line x1="803" y1="597" x2="803" y2="497" stroke="#f46d43" stroke-width="2"/>
	<g>
		<circle cx="803" cy="497" r="16" stroke="#f46d43" stroke-width="2" fill="#fdae61"/>
		<text x="794" y="501" fill="#000000" font-family="Verdana" font-size="12">DF</text>
	</g>
	<text x="808" y="463" fill="#1a9850" font-family="Verdana" font-size="12">1,N</text>
	<text x="808" y="530" fill="#1a9850" font-family="Verdana" font-size="12">1,1</text>
	<line x1="808" y1="532" x2="829" y2="532" stroke="#1a9850" stroke-width="1"/>
</g>

<!-- Association EQUIPE -->
<g>
	<line x1="132" y1="597" x2="321" y2="597" stroke="#f46d43" stroke-width="2"/>
	<line x1="803" y1="806" x2="321" y2="597" stroke="#f46d43" stroke-width="2"/>
	<g>
		<path d="M338 572 a14 14 90 0 1 14 14 V597 h-62 V586 a14 14 90 0 1 14 -14" fill="#fdae61" stroke="#fdae61" stroke-width="0"/>
		<path d="M352 597 v11 a14 14 90 0 1 -14 14 H304 a14 14 90 0 1 -14 -14 V597 H62" fill="#fee08b" stroke="#fee08b" stroke-width="0"/>
		<rect x="290" y="572" width="62" height="50" fill="none" rx="14" stroke="#f46d43" stroke-width="2"/>
		<line x1="290" y1="597" x2="352" y2="597" stroke="#f46d43" stroke-width="1"/>
		<text x="301" y="589.75" fill="#000000" font-family="Verdana" font-size="12">equipe</text>
		<text x="297" y="614.8" fill="#000000" font-family="Verdana" font-size="12">numero</text>
	</g>
	<text x="184" y="614" fill="#1a9850" font-family="Verdana" font-size="12">0,1</text>
	<text x="731" y="800.09" fill="#1a9850" font-family="Verdana" font-size="12">0,N</text>
</g>

<!-- Association ANIMATION -->
<g>
	<line x1="321" y1="497" x2="508" y2="597" stroke="#f46d43" stroke-width="2"/>
	<line x1="803" y1="806" x2="508" y2="597" stroke="#f46d43" stroke-width="2"/>
	<g>
		<path d="M532 572 a14 14 90 0 1 14 14 V597 h-76 V586 a14 14 90 0 1 14 -14" fill="#fdae61" stroke="#fdae61" stroke-width="0"/>
		<path d="M546 597 v11 a14 14 90 0 1 -14 14 H484 a14 14 90 0 1 -14 -14 V597 H76" fill="#fee08b" stroke="#fee08b" stroke-width="0"/>
		<rect x="470" y="572" width="76" height="50" fill="none" rx="14" stroke="#f46d43" stroke-width="2"/>
		<line x1="470" y1="597" x2="546" y2="597" stroke="#f46d43" stroke-width="1"/>
		<text x="478" y="589.75" fill="#000000" font-family="Verdana" font-size="12">animation</text>
	</g>
	<text x="329.96" y="531" fill="#1a9850" font-family="Verdana" font-size="12">0,N</text>
	<text x="731" y="785.73" fill="#1a9850" font-family="Verdana" font-size="12">0,N</text>
</g>

<!-- Association GESTION -->
<g>
	<line x1="508" y1="497" x2="679" y2="597" stroke="#f46d43" stroke-width="2"/>
	<line x1="803" y1="597" x2="679" y2="597" stroke="#f46d43" stroke-width="2"/>
	<g>
		<path d="M695 572 a14 14 90 0 1 14 14 V597 h-60 V586 a14 14 90 0 1 14 -14" fill="#fdae61" stroke="#fdae61" stroke-width="0"/>
		<path d="M709 597 v11 a14 14 90 0 1 -14 14 H663 a14 14 90 0 1 -14 -14 V597 H60" fill="#fee08b" stroke="#fee08b" stroke-width="0"/>
		<rect x="649" y="572" width="60" height="50" fill="none" rx="14" stroke="#f46d43" stroke-width="2"/>
		<line x1="649" y1="597" x2="709" y2="597" stroke="#f46d43" stroke-width="1"/>
		<text x="657" y="589.75" fill="#000000" font-family="Verdana" font-size="12">gestion</text>
	</g>
	<text x="514.61" y="531" fill="#1a9850" font-family="Verdana" font-size="12">1,N</text>
	<text x="738" y="614" fill="#1a9850" font-family="Verdana" font-size="12">1,1</text>
</g>

<!-- Association DF6 -->
<g>
	<line x1="803" y1="597" x2="803" y2="697" stroke="#f46d43" stroke-width="2"/>
	<line x1="803" y1="806" x2="803" y2="697" stroke="#f46d43" stroke-width="2"/>
	<g>
		<circle cx="803" cy="697" r="16" stroke="#f46d43" stroke-width="2" fill="#fdae61"/>
		<text x="794" y="701" fill="#000000" font-family="Verdana" font-size="12">DF</text>
	</g>
	<text x="808" y="673" fill="#1a9850" font-family="Verdana" font-size="12">1,N</text>
	<text x="808" y="730" fill="#1a9850" font-family="Verdana" font-size="12">1,1</text>
	<line x1="808" y1="732" x2="829" y2="732" stroke="#1a9850" stroke-width="1"/>
</g>

<!-- Association EVALUATION -->
<g>
	<line x1="321" y1="806" x2="508" y2="806" stroke="#f46d43" stroke-width="2"/>
	<line x1="803" y1="806" x2="508" y2="806" stroke="#f46d43" stroke-width="2"/>
	<g>
		<path d="M533 781 a14 14 90 0 1 14 14 V806 h-78 V795 a14 14 90 0 1 14 -14" fill="#fdae61" stroke="#fdae61" stroke-width="0"/>
		<path d="M547 806 v11 a14 14 90 0 1 -14 14 H483 a14 14 90 0 1 -14 -14 V806 H78" fill="#fee08b" stroke="#fee08b" stroke-width="0"/>
		<rect x="469" y="781" width="78" height="50" fill="none" rx="14" stroke="#f46d43" stroke-width="2"/>
		<line x1="469" y1="806" x2="547" y2="806" stroke="#f46d43" stroke-width="1"/>
		<text x="477" y="798.75" fill="#000000" font-family="Verdana" font-size="12">evaluation</text>
		<text x="476" y="823.8" fill="#000000" font-family="Verdana" font-size="12">resultat</text>
	</g>
	<text x="375" y="823" fill="#1a9850" font-family="Verdana" font-size="12">0,1</text>
	<text x="731" y="823" fill="#1a9850" font-family="Verdana" font-size="12">0,N</text>
</g>

<!-- Association DEROULEMENT -->
<g>
	<line x1="803" y1="806" x2="803" y2="924" stroke="#f46d43" stroke-width="2"/>
	<line x1="679" y1="924" x2="803" y2="924" stroke="#f46d43" stroke-width="2"/>
	<g>
		<path d="M835 899 a14 14 90 0 1 14 14 V924 h-92 V913 a14 14 90 0 1 14 -14" fill="#fdae61" stroke="#fdae61" stroke-width="0"/>
		<path d="M849 924 v11 a14 14 90 0 1 -14 14 H771 a14 14 90 0 1 -14 -14 V924 H92" fill="#fee08b" stroke="#fee08b" stroke-width="0"/>
		<rect x="757" y="899" width="92" height="50" fill="none" rx="14" stroke="#f46d43" stroke-width="2"/>
		<line x1="757" y1="924" x2="849" y2="924" stroke="#f46d43" stroke-width="1"/>
		<text x="765" y="916.75" fill="#000000" font-family="Verdana" font-size="12">deroulement</text>
	</g>
	<text x="808" y="891" fill="#1a9850" font-family="Verdana" font-size="12">1,N</text>
	<text x="730" y="941" fill="#1a9850" font-family="Verdana" font-size="12">1,N</text>
</g>

<!-- Entity COMPTE -->
<g>
	<g>
		<rect x="362" y="9" width="100" height="25" fill="#a6d96a" stroke="none" stroke-width="0" opacity="1"/>
		<rect x="362" y="34" width="100" height="93" fill="#d9ef8b" stroke="none" stroke-width="0" opacity="1"/>
		<rect x="362" y="9" width="100" height="118" fill="none" stroke="#66bd63" stroke-width="2" opacity="1"/>
		<line x1="362" y1="34" x2="462" y2="34" stroke="#66bd63" stroke-width="1"/>
	</g>
	<text x="389" y="26.75" fill="#000000" font-family="Verdana" font-size="12">compte</text>
	<text x="367" y="51.8" fill="#000000" font-family="Verdana" font-size="12">idc</text>
	<line x1="367" y1="54" x2="385" y2="54" stroke="#000000" stroke-width="1"/>
	<text x="367" y="68.8" fill="#000000" font-family="Verdana" font-size="12">courriel</text>
	<text x="367" y="85.8" fill="#000000" font-family="Verdana" font-size="12">nom</text>
	<text x="367" y="102.8" fill="#000000" font-family="Verdana" font-size="12">prenom</text>
	<text x="367" y="119.8" fill="#000000" font-family="Verdana" font-size="12">mot_de_passe</text>
</g>

<!-- Entity TRAITEUR -->
<g>
	<g>
		<rect x="775" y="143" width="56" height="25" fill="#a6d96a" stroke="none" stroke-width="0" opacity="1"/>
		<rect x="775" y="168" width="56" height="25" fill="#d9ef8b" stroke="none" stroke-width="0" opacity="1"/>
		<rect x="775" y="143" width="56" height="50" fill="none" stroke="#66bd63" stroke-width="2" opacity="1"/>
		<line x1="775" y1="168" x2="831" y2="168" stroke="#66bd63" stroke-width="1"/>
	</g>
	<text x="780" y="160.75" fill="#000000" font-family="Verdana" font-size="12">traiteur</text>
	<text x="780" y="185.8" fill="#000000" font-family="Verdana" font-size="12">nom</text>
	<line x1="780" y1="188" x2="808" y2="188" stroke="#000000" stroke-width="1"/>
</g>

<!-- Entity ENREGISTREMENT -->
<g>
	<g>
		<rect x="359" y="209" width="106" height="25" fill="#a6d96a" stroke="none" stroke-width="0" opacity="1"/>
		<rect x="359" y="234" width="106" height="111" fill="#d9ef8b" stroke="none" stroke-width="0" opacity="1"/>
		<rect x="359" y="209" width="106" height="136" fill="none" stroke="#66bd63" stroke-width="2" opacity="1"/>
		<line x1="359" y1="234" x2="465" y2="234" stroke="#66bd63" stroke-width="1"/>
	</g>
	<text x="366" y="226.75" fill="#000000" font-family="Verdana" font-size="12">enregistrement</text>
	<text x="364" y="251.8" fill="#000000" font-family="Verdana" font-size="12">idenr</text>
	<line x1="364" y1="254" x2="396" y2="254" stroke="#000000" stroke-width="1" stroke-dasharray="4"/>
	<text x="364" y="268.8" fill="#000000" font-family="Verdana" font-size="12">type_pref</text>
	<text x="364" y="285.8" fill="#000000" font-family="Verdana" font-size="12">type_intol</text>
	<text x="364" y="302.8" fill="#000000" font-family="Verdana" font-size="12">commentaire</text>
	<text x="364" y="319.8" fill="#000000" font-family="Verdana" font-size="12">politique_check</text>
	<text x="364" y="336.8" fill="#000000" font-family="Verdana" font-size="12">check_in</text>
</g>

<!-- Entity TYPE_ROLE -->
<g>
	<g>
		<rect x="9" y="362" width="68" height="25" fill="#a6d96a" stroke="none" stroke-width="0" opacity="1"/>
		<rect x="9" y="387" width="68" height="25" fill="#d9ef8b" stroke="none" stroke-width="0" opacity="1"/>
		<rect x="9" y="362" width="68" height="50" fill="none" stroke="#66bd63" stroke-width="2" opacity="1"/>
		<line x1="9" y1="387" x2="77" y2="387" stroke="#66bd63" stroke-width="1"/>
	</g>
	<text x="14" y="379.75" fill="#000000" font-family="Verdana" font-size="12">type_role</text>
	<text x="14" y="404.8" fill="#000000" font-family="Verdana" font-size="12">idrole</text>
	<line x1="14" y1="407" x2="49" y2="407" stroke="#000000" stroke-width="1"/>
</g>

<!-- Entity BENEVOLE -->
<g>
	<g>
		<rect x="288" y="370" width="66" height="25" fill="#a6d96a" stroke="none" stroke-width="0" opacity="1"/>
		<rect x="288" y="395" width="66" height="9" fill="#d9ef8b" stroke="none" stroke-width="0" opacity="1"/>
		<rect x="288" y="370" width="66" height="34" fill="none" stroke="#66bd63" stroke-width="2" opacity="1"/>
		<line x1="288" y1="395" x2="354" y2="395" stroke="#66bd63" stroke-width="1"/>
	</g>
	<text x="294" y="387.75" fill="#000000" font-family="Verdana" font-size="12">benevole</text>
</g>

<!-- Entity CONFERENCIER -->
<g>
	<g>
		<rect x="465" y="370" width="86" height="25" fill="#a6d96a" stroke="none" stroke-width="0" opacity="1"/>
		<rect x="465" y="395" width="86" height="9" fill="#d9ef8b" stroke="none" stroke-width="0" opacity="1"/>
		<rect x="465" y="370" width="86" height="34" fill="none" stroke="#66bd63" stroke-width="2" opacity="1"/>
		<line x1="465" y1="395" x2="551" y2="395" stroke="#66bd63" stroke-width="1"/>
	</g>
	<text x="471" y="387.75" fill="#000000" font-family="Verdana" font-size="12">conferencier</text>
</g>

<!-- Entity CHAMBRE -->
<g>
	<g>
		<rect x="647" y="336" width="64" height="25" fill="#a6d96a" stroke="none" stroke-width="0" opacity="1"/>
		<rect x="647" y="361" width="64" height="77" fill="#d9ef8b" stroke="none" stroke-width="0" opacity="1"/>
		<rect x="647" y="336" width="64" height="102" fill="none" stroke="#66bd63" stroke-width="2" opacity="1"/>
		<line x1="647" y1="361" x2="711" y2="361" stroke="#66bd63" stroke-width="1"/>
	</g>
	<text x="653" y="353.75" fill="#000000" font-family="Verdana" font-size="12">chambre</text>
	<text x="652" y="378.8" fill="#000000" font-family="Verdana" font-size="12">hotel</text>
	<line x1="652" y1="381" x2="683" y2="381" stroke="#000000" stroke-width="1" stroke-dasharray="4"/>
	<text x="652" y="395.8" fill="#000000" font-family="Verdana" font-size="12">adresse</text>
	<text x="652" y="412.8" fill="#000000" font-family="Verdana" font-size="12">debut</text>
	<text x="652" y="429.8" fill="#000000" font-family="Verdana" font-size="12">fin</text>
</g>

<!-- Entity EVENEMENT -->
<g>
	<g>
		<rect x="764" y="328" width="78" height="25" fill="#a6d96a" stroke="none" stroke-width="0" opacity="1"/>
		<rect x="764" y="353" width="78" height="93" fill="#d9ef8b" stroke="none" stroke-width="0" opacity="1"/>
		<rect x="764" y="328" width="78" height="118" fill="none" stroke="#66bd63" stroke-width="2" opacity="1"/>
		<line x1="764" y1="353" x2="842" y2="353" stroke="#66bd63" stroke-width="1"/>
	</g>
	<text x="769" y="345.75" fill="#000000" font-family="Verdana" font-size="12">evenement</text>
	<text x="769" y="370.8" fill="#000000" font-family="Verdana" font-size="12">idevn</text>
	<line x1="769" y1="373" x2="803" y2="373" stroke="#000000" stroke-width="1"/>
	<text x="769" y="387.8" fill="#000000" font-family="Verdana" font-size="12">titre</text>
	<text x="769" y="404.8" fill="#000000" font-family="Verdana" font-size="12">edition</text>
	<text x="769" y="421.8" fill="#000000" font-family="Verdana" font-size="12">debut</text>
	<text x="769" y="438.8" fill="#000000" font-family="Verdana" font-size="12">fin</text>
</g>

<!-- Entity STAFF -->
<g>
	<g>
		<rect x="97" y="472" width="70" height="25" fill="#a6d96a" stroke="none" stroke-width="0" opacity="1"/>
		<rect x="97" y="497" width="70" height="25" fill="#d9ef8b" stroke="none" stroke-width="0" opacity="1"/>
		<rect x="97" y="472" width="70" height="50" fill="none" stroke="#66bd63" stroke-width="2" opacity="1"/>
		<line x1="97" y1="497" x2="167" y2="497" stroke="#66bd63" stroke-width="1"/>
	</g>
	<text x="118" y="489.75" fill="#000000" font-family="Verdana" font-size="12">staff</text>
	<text x="102" y="514.8" fill="#000000" font-family="Verdana" font-size="12">telephone</text>
</g>

<!-- Entity ANIMATEUR -->
<g>
	<g>
		<rect x="284" y="480" width="74" height="25" fill="#a6d96a" stroke="none" stroke-width="0" opacity="1"/>
		<rect x="284" y="505" width="74" height="9" fill="#d9ef8b" stroke="none" stroke-width="0" opacity="1"/>
		<rect x="284" y="480" width="74" height="34" fill="none" stroke="#66bd63" stroke-width="2" opacity="1"/>
		<line x1="284" y1="505" x2="358" y2="505" stroke="#66bd63" stroke-width="1"/>
	</g>
	<text x="290" y="497.75" fill="#000000" font-family="Verdana" font-size="12">animateur</text>
</g>

<!-- Entity RESPONSABLE -->
<g>
	<g>
		<rect x="466" y="480" width="84" height="25" fill="#a6d96a" stroke="none" stroke-width="0" opacity="1"/>
		<rect x="466" y="505" width="84" height="9" fill="#d9ef8b" stroke="none" stroke-width="0" opacity="1"/>
		<rect x="466" y="480" width="84" height="34" fill="none" stroke="#66bd63" stroke-width="2" opacity="1"/>
		<line x1="466" y1="505" x2="550" y2="505" stroke="#66bd63" stroke-width="1"/>
	</g>
	<text x="472" y="497.75" fill="#000000" font-family="Verdana" font-size="12">responsable</text>
</g>

<!-- Entity ABSENCE -->
<g>
	<g>
		<rect x="649" y="463" width="60" height="25" fill="#a6d96a" stroke="none" stroke-width="0" opacity="1"/>
		<rect x="649" y="488" width="60" height="43" fill="#d9ef8b" stroke="none" stroke-width="0" opacity="1"/>
		<rect x="649" y="463" width="60" height="68" fill="none" stroke="#66bd63" stroke-width="2" opacity="1"/>
		<line x1="649" y1="488" x2="709" y2="488" stroke="#66bd63" stroke-width="1"/>
	</g>
	<text x="654" y="480.75" fill="#000000" font-family="Verdana" font-size="12">absence</text>
	<text x="654" y="505.8" fill="#000000" font-family="Verdana" font-size="12">debut</text>
	<line x1="654" y1="508" x2="689" y2="508" stroke="#000000" stroke-width="1" stroke-dasharray="4"/>
	<text x="654" y="522.8" fill="#000000" font-family="Verdana" font-size="12">fin</text>
	<line x1="654" y1="525" x2="670" y2="525" stroke="#000000" stroke-width="1" stroke-dasharray="4"/>
</g>

<!-- Entity PUBLIC -->
<g>
	<g>
		<rect x="85" y="555" width="94" height="25" fill="#a6d96a" stroke="none" stroke-width="0" opacity="1"/>
		<rect x="85" y="580" width="94" height="59" fill="#d9ef8b" stroke="none" stroke-width="0" opacity="1"/>
		<rect x="85" y="555" width="94" height="84" fill="none" stroke="#66bd63" stroke-width="2" opacity="1"/>
		<line x1="85" y1="580" x2="179" y2="580" stroke="#66bd63" stroke-width="1"/>
	</g>
	<text x="114" y="572.75" fill="#000000" font-family="Verdana" font-size="12">public</text>
	<text x="90" y="597.8" fill="#000000" font-family="Verdana" font-size="12">type_diplome</text>
	<text x="90" y="614.8" fill="#000000" font-family="Verdana" font-size="12">occupation</text>
	<text x="90" y="631.8" fill="#000000" font-family="Verdana" font-size="12">organisation</text>
</g>

<!-- Entity THEME -->
<g>
	<g>
		<rect x="764" y="538" width="78" height="25" fill="#a6d96a" stroke="none" stroke-width="0" opacity="1"/>
		<rect x="764" y="563" width="78" height="93" fill="#d9ef8b" stroke="none" stroke-width="0" opacity="1"/>
		<rect x="764" y="538" width="78" height="118" fill="none" stroke="#66bd63" stroke-width="2" opacity="1"/>
		<line x1="764" y1="563" x2="842" y2="563" stroke="#66bd63" stroke-width="1"/>
	</g>
	<text x="784" y="555.75" fill="#000000" font-family="Verdana" font-size="12">theme</text>
	<text x="769" y="580.8" fill="#000000" font-family="Verdana" font-size="12">idt</text>
	<line x1="769" y1="583" x2="786" y2="583" stroke="#000000" stroke-width="1" stroke-dasharray="4"/>
	<text x="769" y="597.8" fill="#000000" font-family="Verdana" font-size="12">sujet</text>
	<text x="769" y="614.8" fill="#000000" font-family="Verdana" font-size="12">description</text>
	<text x="769" y="631.8" fill="#000000" font-family="Verdana" font-size="12">debut</text>
	<text x="769" y="648.8" fill="#000000" font-family="Verdana" font-size="12">fin</text>
</g>

<!-- Entity PROFESSIONNEL -->
<g>
	<g>
		<rect x="275" y="680" width="92" height="25" fill="#a6d96a" stroke="none" stroke-width="0" opacity="1"/>
		<rect x="275" y="705" width="92" height="9" fill="#d9ef8b" stroke="none" stroke-width="0" opacity="1"/>
		<rect x="275" y="680" width="92" height="34" fill="none" stroke="#66bd63" stroke-width="2" opacity="1"/>
		<line x1="275" y1="705" x2="367" y2="705" stroke="#66bd63" stroke-width="1"/>
	</g>
	<text x="281" y="697.75" fill="#000000" font-family="Verdana" font-size="12">professionnel</text>
</g>

<!-- Entity ETUDIANT_UDES -->
<g>
	<g>
		<rect x="272" y="772" width="98" height="25" fill="#a6d96a" stroke="none" stroke-width="0" opacity="1"/>
		<rect x="272" y="797" width="98" height="43" fill="#d9ef8b" stroke="none" stroke-width="0" opacity="1"/>
		<rect x="272" y="772" width="98" height="68" fill="none" stroke="#66bd63" stroke-width="2" opacity="1"/>
		<line x1="272" y1="797" x2="370" y2="797" stroke="#66bd63" stroke-width="1"/>
	</g>
	<text x="278" y="789.75" fill="#000000" font-family="Verdana" font-size="12">etudiant_udes</text>
	<text x="277" y="814.8" fill="#000000" font-family="Verdana" font-size="12">matricule</text>
	<text x="277" y="831.8" fill="#000000" font-family="Verdana" font-size="12">cip</text>
</g>

<!-- Entity ACTIVITE -->
<g>
	<g>
		<rect x="758" y="738" width="90" height="25" fill="#a6d96a" stroke="none" stroke-width="0" opacity="1"/>
		<rect x="758" y="763" width="90" height="111" fill="#d9ef8b" stroke="none" stroke-width="0" opacity="1"/>
		<rect x="758" y="738" width="90" height="136" fill="none" stroke="#66bd63" stroke-width="2" opacity="1"/>
		<line x1="758" y1="763" x2="848" y2="763" stroke="#66bd63" stroke-width="1"/>
	</g>
	<text x="781" y="755.75" fill="#000000" font-family="Verdana" font-size="12">activite</text>
	<text x="763" y="780.8" fill="#000000" font-family="Verdana" font-size="12">ida</text>
	<line x1="763" y1="783" x2="782" y2="783" stroke="#000000" stroke-width="1" stroke-dasharray="4"/>
	<text x="763" y="797.8" fill="#000000" font-family="Verdana" font-size="12">titre</text>
	<text x="763" y="814.8" fill="#000000" font-family="Verdana" font-size="12">description</text>
	<text x="763" y="831.8" fill="#000000" font-family="Verdana" font-size="12">type_activite</text>
	<text x="763" y="848.8" fill="#000000" font-family="Verdana" font-size="12">debut</text>
	<text x="763" y="865.8" fill="#000000" font-family="Verdana" font-size="12">fin</text>
</g>

<!-- Entity LOCAL -->
<g>
	<g>
		<rect x="633" y="865" width="92" height="25" fill="#a6d96a" stroke="none" stroke-width="0" opacity="1"/>
		<rect x="633" y="890" width="92" height="93" fill="#d9ef8b" stroke="none" stroke-width="0" opacity="1"/>
		<rect x="633" y="865" width="92" height="118" fill="none" stroke="#66bd63" stroke-width="2" opacity="1"/>
		<line x1="633" y1="890" x2="725" y2="890" stroke="#66bd63" stroke-width="1"/>
	</g>
	<text x="665" y="882.75" fill="#000000" font-family="Verdana" font-size="12">local</text>
	<text x="638" y="907.8" fill="#000000" font-family="Verdana" font-size="12">idl</text>
	<line x1="638" y1="910" x2="653" y2="910" stroke="#000000" stroke-width="1"/>
	<text x="638" y="924.8" fill="#000000" font-family="Verdana" font-size="12">lieu</text>
	<text x="638" y="941.8" fill="#000000" font-family="Verdana" font-size="12">adresse</text>
	<text x="638" y="958.8" fill="#000000" font-family="Verdana" font-size="12">emplacement</text>
	<text x="638" y="975.8" fill="#000000" font-family="Verdana" font-size="12">nb_places</text>
</g>
</svg>